<?xml version="1.0" encoding="utf-8"?>
<!-- Generator: Adobe Illustrator 21.1.0, SVG Export Plug-In . SVG Version: 6.00 Build 0)  -->
<svg version="1.1" baseProfile="tiny" id="Layer_1" xmlns="http://www.w3.org/2000/svg" xmlns:xlink="http://www.w3.org/1999/xlink"
	 x="0px" y="0px" viewBox="0 0 161.6 28.4" overflow="auto" xml:space="preserve">
<path fill="#FEFEFE" d="M48.5,27.8c-15.7,0-31.3,0-47,0c-0.3,0-0.8,0.2-0.6-0.5c0.3-0.3,0.7-0.2,1-0.2c1.7,0,3.5,0,5.2,0
	c1.1,0,1.1,0,1.1-1.1c0-5.6,0-11.3,0-16.9c0-0.5-0.2-1.1,0.3-1.3c0.5-0.2,0.7,0.5,1,0.8c4.6,5.8,9.2,11.7,13.7,17.5
	c0.6,0.7,1.2,1.1,2.2,1.1c3.4-0.1,6.9,0,10.3,0c1,0,1-0.1,1-1.1c0-7.8,0-15.6,0-23.4c0-1.1,0-1.1-1.1-1.1c-1.6,0-3.2,0-4.8,0
	c-1.3,0-1.3,0-1.3,1.3c0,5.5,0,10.9,0,16.4c0,0.3,0,0.7,0,1c-0.1,0.5-0.3,0.5-0.7,0.2c-0.2-0.2-0.4-0.5-0.6-0.7
	c-4.5-5.8-9-11.5-13.6-17.3c-0.5-0.7-1.1-0.9-1.9-0.9c-3.6,0-7.2,0-10.8,0c-0.4,0-0.8,0.1-1.2-0.2C0.8,0.7,1,0.6,1.6,0.6
	c52.9,0,105.9,0,158.8,0c0.5,0,0.7,0.1,0.7,0.7c0,8.6,0,17.2,0,25.7c0,0.6-0.1,0.8-0.7,0.8c-31.5,0-63.1,0-94.6,0
	c0-0.1,0-0.2,0.1-0.2c0.7-0.3,1.5-0.2,2.3-0.3c1.9-0.3,3.5-1,4.6-2.7c0.7-1.1,1-2.4,1-3.7c0-4.3,0-8.7,0-13c0-3.5-2-5.8-5.4-6.4
	c-1.6-0.3-3.3-0.4-4.9-0.4C59.2,1,55,1,50.9,1.1c-1.6,0-3.1,0.1-4.7,0.3c-3.4,0.5-5.3,2.5-5.5,5.9c-0.3,4.7-0.3,9.3,0,14
	c0.2,3.4,2.3,5.5,5.7,5.9c0.7,0.1,1.5,0.1,2.1,0.3C48.6,27.6,48.6,27.7,48.5,27.8z"/>
<path fill="#1C4597" d="M0.9,1.3c4.1,0,8.3,0,12.4,0c0.7,0,1.1,0.2,1.5,0.7c4.7,6,9.4,12.1,14.2,18.1c0.1,0.2,0.3,0.3,0.4,0.5
	c0.2-0.3,0.1-0.6,0.1-0.8c0-5.9,0-11.8,0-17.7c0-0.6,0.1-0.8,0.7-0.8c2.1,0,4.2,0,6.3,0c0.5,0,0.6,0.2,0.6,0.7c0,8.3,0,16.5,0,24.8
	c0,0.6-0.2,0.7-0.7,0.7c-3.9,0-7.8,0-11.7,0c-0.5,0-0.8-0.2-1.1-0.6c-4.8-6.2-9.6-12.3-14.5-18.5C9.1,8.2,8.9,8,8.7,7.8
	C8.5,8.1,8.6,8.3,8.6,8.6c0,6,0,12,0,18c0,0.6-0.1,0.8-0.8,0.8c-2.3-0.1-4.6-0.1-6.9-0.1C0.9,18.7,0.9,10,0.9,1.3z"/>
<path fill="#7991C1" d="M48.5,27.8c0,0,0-0.1,0-0.1c0.3-0.3,0.7-0.3,1-0.3c5.1,0,10.1,0,15.2,0c0.4,0,0.7,0,1,0.3c0,0,0,0.1,0,0.1
	C60,27.8,54.3,27.8,48.5,27.8z"/>
<path fill="#1C4597" d="M65.7,27.7c-3,0-6,0-9,0c-2.7,0-5.5,0-8.2,0c-1.2,0-2.4-0.2-3.5-0.5c-2.6-0.8-4.4-2.7-4.5-5.5
	c-0.3-4.9-0.3-9.9,0-14.8c0.2-3.2,2.6-5.4,6-5.8c2.8-0.3,5.6-0.3,8.3-0.3c3.9,0,7.7-0.1,11.6,0.1c1,0.1,2.1,0.2,3.1,0.5
	c2.7,0.8,4.4,2.9,4.5,6c0.2,4.6,0.2,9.1,0,13.7c-0.1,3.6-2.3,5.8-5.9,6.3C67.3,27.6,66.5,27.6,65.7,27.7z"/>
<path fill="#1C4597" d="M141.5,1.3c1.5,0,2.9,0,4.4,0c0.4,0,0.6,0.1,0.9,0.5c4.5,8.3,9.1,16.7,13.6,25c0.3,0.6,0.2,0.7-0.4,0.7
	c-2.7,0-5.3,0-8,0c-0.5,0-0.7-0.1-0.9-0.5c-0.6-1.2-1.2-2.3-1.8-3.5c-0.2-0.4-0.4-0.5-0.8-0.5c-4.8,0-9.6,0-14.4,0
	c-0.4,0-0.6,0.2-0.8,0.5c-0.6,1.2-1.2,2.3-1.8,3.5c-0.2,0.4-0.5,0.6-1,0.6c-2.4,0-4.9,0-7.3,0c-0.7,0-0.9-0.1-0.5-0.8
	c3.9-7,7.7-14.1,11.5-21.1c0.7-1.2,1.4-2.4,2-3.7c0.2-0.4,0.5-0.6,1-0.6C138.6,1.3,140.1,1.3,141.5,1.3z"/>
<path fill="#1C4597" d="M77.2,14.3c0-4.1,0-8.2,0-12.2c0-0.7,0.2-0.8,0.8-0.8c2.2,0,4.3,0,6.5,0c0.7,0,0.8,0.2,0.8,0.8
	c0,3.6,0,7.2,0,10.8c0,0.2,0,0.6,0.1,0.6c0.2,0.1,0.4-0.2,0.5-0.4C89.9,9.5,94,5.7,98,2c0.5-0.5,1-0.7,1.8-0.7c2.9,0,5.7,0,8.6,0
	c0.3,0,0.6-0.1,0.8,0.1c-0.2,0.2-0.3,0.4-0.5,0.5c-4.3,3.7-8.6,7.4-12.9,11c-0.5,0.4-0.6,0.6,0,1.1c5,4.2,9.9,8.5,14.8,12.8
	c0.2,0.1,0.5,0.3,0.4,0.5c-0.1,0.2-0.4,0.1-0.6,0.1c-3.3,0-6.5,0-9.8,0c-0.5,0-0.9-0.1-1.2-0.5c-4.5-4.2-9-8.4-13.5-12.6
	c-0.2-0.1-0.3-0.4-0.5-0.3c-0.1,0-0.1,0.4-0.1,0.6c0,4,0,8.1,0,12.1c0,0.6-0.2,0.7-0.7,0.7c-2.2,0-4.3,0-6.5,0
	c-0.7,0-0.9-0.1-0.9-0.9C77.2,22.5,77.2,18.4,77.2,14.3z"/>
<path fill="#1C4597" d="M112.7,14.3c0-4.1,0-8.2,0-12.2c0-0.7,0.2-0.8,0.8-0.8c2.2,0,4.4,0,6.6,0c0.5,0,0.6,0.1,0.6,0.7
	c0,8.3,0,16.5,0,24.8c0,0.5-0.2,0.7-0.7,0.7c-2.2,0-4.5,0-6.7,0c-0.6,0-0.7-0.2-0.7-0.7C112.7,22.6,112.7,18.4,112.7,14.3z"/>
<path fill="#FEFEFE" d="M57.1,21.1c-2.4,0-4.8,0-7.3,0c-1.8,0-2.3-0.5-2.3-2.3c0-3.1,0-6.1,0-9.2c0-1.5,0.5-2.1,2-2.1
	c5,0,10.1,0,15.1,0c1.4,0,2,0.6,2,2c0,3.2,0,6.3,0,9.5c0,1.5-0.6,2-2.1,2C62.1,21.1,59.6,21.1,57.1,21.1
	C57.1,21.1,57.1,21.1,57.1,21.1z"/>
<path fill="#FEFEFE" d="M141.3,17.2c-1.5,0-2.9,0-4.4,0c-0.4,0-0.7,0-0.4-0.5c1.5-2.8,3-5.6,4.5-8.5c0.2-0.5,0.3-0.4,0.5,0
	c1.5,2.8,3,5.6,4.5,8.5c0.2,0.4,0.1,0.5-0.3,0.5C144.3,17.2,142.8,17.2,141.3,17.2z"/>
</svg>
